<svg width="24" height="24" viewBox="-6.5 0 24 24" xmlns="http://www.w3.org/2000/svg" fill="#262c27"><path d="M9.288 18.319a9.777 9.777 0 01-3.89.61l.02.001a10.331 10.331 0 01-3.992-.633l.072.023.703 1.173.282 3.753q0 .328.868.539a8.742 8.742 0 001.955.216L5.448 24h-.007l.149.001c.687 0 1.356-.077 1.998-.224l-.06.012q.868-.211.868-.539l.234-3.753zm-8.585-6c.171-.571.411-1.07.716-1.52l-.012.019a3.132 3.132 0 011.156-1.071l.017-.008a.995.995 0 01.896.049l-.005-.003a.94.94 0 01.326.279l.002.003c.07.076.12.172.14.278l.001.004a.383.383 0 01-.025.307l.001-.002a.212.212 0 01-.188.118q-.118 0-.305-.328-.282-.516-.8-.141a2.706 2.706 0 00-.793.945l-.007.015c-.215.375-.405.81-.547 1.267l-.013.047a1.447 1.447 0 00-.105.549c0 .147.021.288.061.422l-.003-.01a.275.275 0 00.24.142c.297-.059.549-.22.725-.443l.002-.003c.239-.226.448-.48.624-.758l.01-.016.234-.703q.094-.234.282-.234t.188.258a2.111 2.111 0 01-.194.74l.006-.013a6.135 6.135 0 00-.271.798l-.011.047-.378 1.216a1.274 1.274 0 01-.121.263l.003-.006a.198.198 0 01-.159.118h-.009a.159.159 0 01-.132-.07v-.001a.467.467 0 01-.023-.285l-.001.003a9.23 9.23 0 01.373-1.264l-.021.064-.328.328c-.249.28-.594.47-.982.52l-.008.001-.033.001a.665.665 0 01-.345-.096l.003.002.375 3.705q.047.234 1.219.516c.85.209 1.826.328 2.83.328h.082-.004.078c1.004 0 1.98-.12 2.915-.345l-.084.017q1.126-.282 1.219-.516l.516-4.409-.094.047c-.226.252-.49.463-.785.626l-.015.008a.984.984 0 01-.566.07l.006.001q-.285-.047-.285-.282c.098-.335.277-.62.515-.843l.001-.001.141-.234q.234-.234.234-.352T9 12.389a.71.71 0 00-.375.188c-.15.138-.282.292-.394.46l-.006.009a4.416 4.416 0 00-.389.699l-.011.028-.188.375-.46 1.312a.62.62 0 01-.231.21l-.003.002a.213.213 0 01-.235 0h.001a.204.204 0 01-.091-.164l.047-.141c.122-.354.249-.648.394-.932l-.019.041.328-.703q.047-.188.047-.141c-.183.2-.401.365-.644.487l-.013.006a.757.757 0 01-.474.07l.005.001a.303.303 0 01-.234-.232v-.002l-.047-.094c-.197.201-.47.326-.773.328q-.305-.047-.16-.703c-.174.41-.569.694-1.031.703h-.001a.401.401 0 01-.421-.232l-.001-.003a1.974 1.974 0 01.23-1.09l-.005.011v-.047q.141-.328.328-.75.141-.282.375-.188h.047q.141.094.047.375l-.141.188c-.11.205-.22.452-.314.708l-.014.043q-.094.422.07.422a.79.79 0 00.356-.096l-.004.002c.209-.152.376-.349.489-.577l.004-.009c.107-.182.195-.393.254-.616l.004-.018.094-.24q.094-.234.211-.234a.296.296 0 01.211.093q.094.094 0 .328l-.328.75a1.736 1.736 0 00-.14.553v.007q0 .188.328.047c.126-.049.234-.112.33-.19l-.002.002q.047-.188.75-2.017l.469-1.173a.333.333 0 01.318-.235h.011-.001c.055.01.103.035.141.071q.094.07.047.258l-.847 2.026q-.328.844-.4 1.076t.028.24q.328 0 1.079-.8l.047-.047.141-.328c.033-.162.098-.305.189-.428l-.002.003q.094-.094.141-.094.188 0 .188.16v.007a.954.954 0 01-.049.304l.002-.007.234-.234a1.006 1.006 0 01.824-.352h-.003a.38.38 0 01.353.378l-.001.023v-.001a2.256 2.256 0 01-.609 1.079l-.094.047a1.024 1.024 0 00-.139.274l-.002.007q0 .047.094.047c.129-.034.24-.1.328-.188l.8-.703.703-6.379a8.93 8.93 0 01-3.022.516H7.69h.004a36.826 36.826 0 01-4.61-.006l.106.005h-.075A9.084 9.084 0 01.03 6.428l.063.02zm10.179-6.286h-.047q0-.188-.868-.375a15.556 15.556 0 00-2.234-.28l-.042-.002.469-1.92L10.834.594Q10.975.5 10.6.172a.527.527 0 00-.278-.159l-.004-.001q-.141-.023-.188.023L7.271 3.028l-.61 2.298-1.219-.048a27.17 27.17 0 00-3.987.25l.14-.016q-1.594.234-1.594.516 0 .469 2.814.657a37.31 37.31 0 005.375-.007l-.121.007q2.814-.186 2.814-.656zm-3.28.234q0 .047-.188.118a1.238 1.238 0 01-.418.071h-.029.001-.028c-.15 0-.293-.026-.427-.073l.009.003q-.188-.07-.188-.118t.141-.094l-.047.047q0 .094.516.094t.516-.094l.047-.047q.091.044.091.09z"/></svg>