<svg class="skill__img" fill="#262c27" xmlns="http://www.w3.org/2000/svg" viewBox="0 0 395 395"><path d="M43.503 56.519c-1.98 0-3.91.8-5.31 2.2a7.56 7.56 0 00-2.19 5.3c0 1.97.8 3.91 2.19 5.3a7.55 7.55 0 005.31 2.2c1.97 0 3.9-.8 5.3-2.2 1.4-1.39 2.2-3.33 2.2-5.3 0-1.97-.8-3.91-2.2-5.3-1.4-1.4-3.33-2.2-5.3-2.2zm29.3 2.2c-1.4-1.4-3.33-2.2-5.3-2.2-1.98 0-3.91.8-5.31 2.2a7.56 7.56 0 00-2.19 5.3c0 1.97.8 3.91 2.19 5.3a7.55 7.55 0 005.31 2.2c1.97 0 3.9-.8 5.3-2.2 1.4-1.39 2.2-3.33 2.2-5.3 0-1.97-.8-3.91-2.2-5.3zm-29.3 131.28c-1.98 0-3.91.8-5.31 2.2a7.56 7.56 0 00-2.19 5.3c0 1.97.8 3.91 2.19 5.3a7.55 7.55 0 005.31 2.2c1.97 0 3.9-.8 5.3-2.2 1.4-1.39 2.2-3.33 2.2-5.3 0-1.97-.8-3.91-2.2-5.3-1.4-1.4-3.33-2.2-5.3-2.2zm29.3 2.2c-1.4-1.4-3.33-2.2-5.3-2.2-1.98 0-3.91.8-5.31 2.2a7.56 7.56 0 00-2.19 5.3c0 1.98.8 3.91 2.19 5.3a7.55 7.55 0 005.31 2.2 7.51 7.51 0 007.5-7.5c0-1.97-.8-3.91-2.2-5.3zm-29.3 131.28c-1.98 0-3.91.8-5.31 2.2a7.56 7.56 0 00-2.19 5.3c0 1.98.8 3.91 2.19 5.3a7.55 7.55 0 005.31 2.2c1.97 0 3.9-.8 5.3-2.2 1.4-1.39 2.2-3.33 2.2-5.3 0-1.97-.8-3.9-2.2-5.3-1.4-1.4-3.33-2.2-5.3-2.2zm29.3 2.2c-1.4-1.4-3.33-2.2-5.3-2.2-1.98 0-3.91.8-5.31 2.2a7.578 7.578 0 00-2.19 5.3c0 1.97.8 3.91 2.19 5.3a7.55 7.55 0 005.31 2.2 7.51 7.51 0 007.5-7.5c0-1.97-.8-3.91-2.2-5.3z"/><path d="M387.5 123.038a7.5 7.5 0 007.5-7.5V12.5a7.5 7.5 0 00-7.5-7.5H7.5A7.5 7.5 0 000 12.5v103.038a7.5 7.5 0 007.5 7.5h21.87v15.443H7.5a7.5 7.5 0 00-7.5 7.5v103.038a7.5 7.5 0 007.5 7.5h21.87v15.443H7.5a7.5 7.5 0 00-7.5 7.5V382.5a7.5 7.5 0 007.5 7.5h380a7.5 7.5 0 007.5-7.5V279.462a7.5 7.5 0 00-7.5-7.5h-21.87v-15.443h21.87a7.5 7.5 0 007.5-7.5V145.981a7.5 7.5 0 00-7.5-7.5h-21.87v-15.443h21.87zm-7.5-15h-39.166V20H380v88.038zm-93.177 0V20h39.011v88.038h-39.011zM15 20h256.823v88.038H15V20zm0 133.481h256.823v88.038H15v-88.038zm271.823 88.038v-88.038h39.011v88.038h-39.011zM15 286.962h256.823V375H15v-88.038zm310.834 0V375h-39.011v-88.038h39.011zM380 375h-39.166v-88.038H380V375zm-29.37-103.038H44.37v-15.443h306.26v15.443zM380 241.519h-39.166v-88.038H380v88.038zm-29.37-103.038H44.37v-15.443h306.26v15.443z"/></svg>