<svg viewBox="0 0 471.117 471.117" xmlns="http://www.w3.org/2000/svg" fill="#262c27"><path d="M447.564 129.817h-68.192c-8.213 0-14.871 6.675-14.871 14.872v129.155c0 8.213 6.658 14.873 14.871 14.873h68.192c8.197 0 14.856-6.66 14.856-14.873V144.689c0-8.197-6.659-14.872-14.856-14.872zm-.754 14.872v115.13h-66.776l-.662-114.377 67.438-.753zm-40.785 128.772c0-4.076 3.321-7.429 7.428-7.429 4.122 0 7.443 3.353 7.443 7.429a7.439 7.439 0 01-7.443 7.444c-4.107 0-7.428-3.337-7.428-7.444zm-289.902-56.673v38.371h-12.365c-8.627 0-15.61 6.999-15.61 15.626 0 8.629 6.983 15.609 15.61 15.609h101.765c8.629 0 15.626-6.98 15.626-15.609 0-8.627-6.997-15.626-15.626-15.626h-12.364v-38.371H271.5c16.04 0 29.083-13.041 29.083-29.083V29.082C300.583 13.042 287.54 0 271.5 0H37.781C21.739 0 8.697 13.042 8.697 29.082v158.623c0 16.042 13.042 29.083 29.084 29.083h78.342zM39.933 31.236h229.415v154.316H39.933V31.236zm305.205 267.386h-170.42c-16.118 0-29.237 13.118-29.237 29.235v114.024c0 16.117 13.119 29.235 29.237 29.235h170.42c16.117 0 29.235-13.118 29.235-29.235V327.857c.001-16.117-13.118-29.235-29.235-29.235zm-179.555 97.183a10.92 10.92 0 01-10.935-10.936c0-6.059 4.891-10.95 10.935-10.95 6.028 0 10.95 4.892 10.95 10.95 0 6.06-4.922 10.936-10.95 10.936zm185.368 46.077c0 3.198-2.614 5.813-5.813 5.813H184.577v-125.65h160.562c3.198 0 5.813 2.614 5.813 5.813v114.024z"/><path d="M49.36 399.558V240.766H25.937v170.511c0 6.46 5.244 11.704 11.705 11.704h78.48v-23.423H49.36zm369.629-56.321v56.32h-24.745v23.423h36.465c6.459 0 11.703-5.244 11.703-11.704V311.033h-23.423v32.204z"/></svg>