<svg class="skill__img" xmlns="http://www.w3.org/2000/svg" viewBox="-143 145 512 512" fill="#262c27"><path d="M-143 145v512h512V145h-512zm482 482h-452V175h452v452z"/><path d="M177.4 511.6c38-22.2 63.6-63.4 63.6-110.6 0-22.3-5.7-43.2-15.7-61.4.6 4.1.9 8.5.9 13.2 0 13-2.4 27.6-9.7 45.8l-39.1 113zm-62.1-99.4L76.9 523.8c11.5 3.4 23.6 5.2 36.2 5.2 14.9 0 29.2-2.6 42.5-7.3-.3-.6-.7-1.1-.9-1.7l-39.4-107.8zm-58.1 104L-3.9 348.9C-11 364.8-15 382.4-15 401c0 50.6 29.4 94.5 72.2 115.2z"/><path d="M48.4 329.2c6.9-.4 7.7 9.7.8 10.6 0 0-6.9.8-14.6 1.2l46.6 138.6 28-84-20-54.6c-6.9-.4-13.4-1.2-13.4-1.2-6.9-.4-6.1-11 .8-10.6 0 0 21.1 1.6 33.7 1.6 13.4 0 34.1-1.6 34.1-1.6 6.9-.4 7.7 9.7.8 10.6 0 0-6.9.8-14.6 1.2l46.3 137.6 12.8-42.6c6.5-16.6 9.7-30.4 9.7-41.4 0-15.8-5.7-26.8-10.6-35.3-6.5-10.5-12.6-19.5-12.6-30 0-11.8 8.9-22.7 21.5-22.7.5 0 1.1.1 1.6.1-22.8-20.9-53.1-33.6-86.4-33.6-44.7 0-84.1 23-107 57.7 3 .1 5.8.2 8.2.2 13.6-.2 34.3-1.8 34.3-1.8z"/></svg>